<?xml version="1.0" encoding="UTF-8"?>
<svg width="800" height="800" version="1.1" viewBox="0 0 800.00001 800.00001" xmlns="http://www.w3.org/2000/svg">
 <defs>
  <linearGradient id="c" x1="360.72" x2="-22.658" y1="497.46" y2="884.35" gradientUnits="userSpaceOnUse">
   <stop stop-opacity=".42" offset="0"/>
   <stop stop-opacity="0" offset="1"/>
  </linearGradient>
  <mask id="b" maskUnits="userSpaceOnUse">
   <circle cx="400" cy="652.36" r="400" color="#000000" color-rendering="auto" fill="#fff" image-rendering="auto" shape-rendering="auto" solid-color="#000000" style="isolation:auto;mix-blend-mode:normal"/>
  </mask>
  <mask id="a" maskUnits="userSpaceOnUse">
   <circle cx="400" cy="400" r="400" color="#000000" color-rendering="auto" fill="#fff" image-rendering="auto" shape-rendering="auto" solid-color="#000000" style="isolation:auto;mix-blend-mode:normal"/>
  </mask>
 </defs>
 <g transform="translate(0 -252.36)">
  <circle cx="400" cy="652.36" r="400" color="#000000" color-rendering="auto" fill="#1c8adb" image-rendering="auto" shape-rendering="auto" solid-color="#000000" style="isolation:auto;mix-blend-mode:normal"/>
  <path transform="translate(0 252.36)" d="m377.44 161.43c-9.5355 0.0465-18.997 3.6783-25.307 10.779l-338.95 338.95c66.772 210.76 240.23 297.01 413.31 288.3l160.89-160.9 36.449-123.39-54.303-44.008c-6.3434 7.3287-72.139 72.141-72.139 72.141l35.416-101.89-118.93-96.383-2.3106-150.98c-0.83314-21.999-17.587-32.694-34.135-32.613z" fill="url(#c)" fill-rule="evenodd" mask="url(#a)"/>
  <path d="m377.44 413.79c-16.548 0.0807-32.887 10.938-32.884 32.036v152.53c0 4.6236-142.13-2.31-142.13-2.31-7.4458 16.259-13.097 33.315-16.98 50.884l108.79 1.5447-0.24812 17.47-111.78-1.5878c-2.8504 18.716-3.7633 37.896-2.762 57.22l112.98 1.6052-0.24813 17.471-111.32-1.5819c2.3134 20.822 6.8377 41.696 13.531 62.229l99.239 1.4107-0.24812 17.47-92.7-1.3163c8.7468 22.367 20.121 44.179 34.099 64.905l230.16 4.6782 67.866-194.67-118.93-96.384-2.31-150.98c-0.83314-21.999-17.589-32.694-34.136-32.614zm192.1 309.74-57.821 165.86 75.673 1.5388 36.45-123.39-54.302-44.008z" fill="#fff" fill-rule="evenodd" mask="url(#b)"/>
 </g>
</svg>
